# xmcd
#
# Track frame offsets: 
#        150
#        17357
#        34327
#        55445
#        75522
#        98625
#        111375
#        132700
#        149177
#        167992
#        190672
#        213055
#        226670
#        250925
#        274067
#        297927
#
# Disc length: 4183 seconds
#
# Revision: 1
# Processed by: cddbd v1.5.2PL0 Copyright (c) Steve Scherf et al.
# Submitted via: ExactAudioCopy v1.3
#
DISCID=e8105510
DTITLE=Various Artist - Blues Revue sampler Aug-Sep 2006
DYEAR=2006
DGENRE=Blues
TTITLE0=Irma Thomas - Stone survivor
TTITLE1=Hollywood Blue Flames - Road to Rio
TTITLE2=Moreland, Arbuckle and Floyd - Fo
TTITLE3=Storm Warning - The woman? Or the blues?
TTITLE4=Chris Thomas King - Baptized in dirty water
TTITLE5=David Barrett and John Garcia - Lick train
TTITLE6=Fiona Boyes - Good Lord made you so
TTITLE7=George Thorogood - Love doctor
TTITLE8=Jeff Lang - The save
TTITLE9=Reverend Raven - Big bee
TTITLE10=Cathy Jean - Done Sayeth
TTITLE11=Measured Chaos - Cruisin'
TTITLE12=Mare Edstrom - Trouble blues
TTITLE13=Al Basile - Picked to click
TTITLE14=Aynsley Lister - 1010
TTITLE15=The Blues Disciples - Brady street
EXTD=
EXTT0=
EXTT1=
EXTT2=
EXTT3=
EXTT4=
EXTT5=
EXTT6=
EXTT7=
EXTT8=
EXTT9=
EXTT10=
EXTT11=
EXTT12=
EXTT13=
EXTT14=
EXTT15=
PLAYORDER=
